%TF.GenerationSoftware,KiCad,Pcbnew,4.0.6*%
%TF.CreationDate,2018-01-29T15:21:53+09:00*%
%TF.ProjectId,1wayI2Con2DCDemod,317761794932436F6E32444344656D6F,rev?*%
%TF.FileFunction,Paste,Top*%
%FSLAX46Y46*%
G04 Gerber Fmt 4.6, Leading zero omitted, Abs format (unit mm)*
G04 Created by KiCad (PCBNEW 4.0.6) date 01/29/18 15:21:53*
%MOMM*%
%LPD*%
G01*
G04 APERTURE LIST*
%ADD10C,0.050000*%
%ADD11R,1.000000X1.701800*%
%ADD12R,0.600000X0.500000*%
%ADD13R,0.500000X0.600000*%
%ADD14R,0.400000X0.600000*%
%ADD15R,0.900000X0.600000*%
%ADD16R,0.800000X0.550000*%
%ADD17R,0.500000X0.250000*%
%ADD18R,0.755000X0.250000*%
%ADD19R,0.530000X0.250000*%
%ADD20R,0.640000X0.700000*%
%ADD21R,1.000000X1.250000*%
G04 APERTURE END LIST*
D10*
D11*
X150700000Y-96400000D03*
X148700000Y-96400000D03*
D12*
X148450000Y-98100000D03*
X149550000Y-98100000D03*
X149550000Y-106800000D03*
X150650000Y-106800000D03*
X147250000Y-95000000D03*
X148350000Y-95000000D03*
X146450000Y-105400000D03*
X147550000Y-105400000D03*
X147050000Y-99000000D03*
X145950000Y-99000000D03*
D13*
X148200000Y-108150000D03*
X148200000Y-109250000D03*
X147500000Y-96550000D03*
X147500000Y-97650000D03*
X147400000Y-108150000D03*
X147400000Y-109250000D03*
D12*
X144750000Y-101700000D03*
X143650000Y-101700000D03*
X144850000Y-103800000D03*
X143750000Y-103800000D03*
D14*
X149450000Y-99100000D03*
X148550000Y-99100000D03*
X152550000Y-97700000D03*
X153450000Y-97700000D03*
X152550000Y-98700000D03*
X153450000Y-98700000D03*
X151550000Y-99100000D03*
X150650000Y-99100000D03*
X150650000Y-98100000D03*
X151550000Y-98100000D03*
X151650000Y-106800000D03*
X152550000Y-106800000D03*
X149150000Y-95000000D03*
X150050000Y-95000000D03*
X148450000Y-105400000D03*
X149350000Y-105400000D03*
X144150000Y-99700000D03*
X145050000Y-99700000D03*
X143850000Y-105800000D03*
X144750000Y-105800000D03*
X144650000Y-100700000D03*
X143750000Y-100700000D03*
X144750000Y-104800000D03*
X143850000Y-104800000D03*
D12*
X147550000Y-100700000D03*
X148650000Y-100700000D03*
X152250000Y-103400000D03*
X151150000Y-103400000D03*
D15*
X152550000Y-102150000D03*
X152550000Y-101200000D03*
X152550000Y-100250000D03*
X150050000Y-100250000D03*
X150050000Y-102150000D03*
D16*
X143700000Y-95650000D03*
X143700000Y-96600000D03*
X143700000Y-97550000D03*
X146300000Y-97550000D03*
X146300000Y-96600000D03*
X146300000Y-95650000D03*
X143700000Y-107250000D03*
X143700000Y-108200000D03*
X143700000Y-109150000D03*
X146300000Y-109150000D03*
X146300000Y-108200000D03*
X146300000Y-107250000D03*
D11*
X151400000Y-108400000D03*
X149400000Y-108400000D03*
D17*
X143025000Y-100000000D03*
D18*
X142860000Y-99500000D03*
D17*
X143025000Y-99000000D03*
X141375000Y-99000000D03*
X141375000Y-100000000D03*
D19*
X141615000Y-99500000D03*
D20*
X142200000Y-99500000D03*
D17*
X143025000Y-105800000D03*
D18*
X142860000Y-105300000D03*
D17*
X143025000Y-104800000D03*
X141375000Y-104800000D03*
X141375000Y-105800000D03*
D19*
X141615000Y-105300000D03*
D20*
X142200000Y-105300000D03*
D21*
X151100000Y-105500000D03*
X153100000Y-105500000D03*
M02*
