%TF.GenerationSoftware,KiCad,Pcbnew,4.0.6*%
%TF.CreationDate,2018-01-25T19:50:15+09:00*%
%TF.ProjectId,1wayI2Con2DCDemod,317761794932436F6E32444344656D6F,rev?*%
%TF.FileFunction,Copper,L1,Top,Signal*%
%FSLAX46Y46*%
G04 Gerber Fmt 4.6, Leading zero omitted, Abs format (unit mm)*
G04 Created by KiCad (PCBNEW 4.0.6) date 01/25/18 19:50:15*
%MOMM*%
%LPD*%
G01*
G04 APERTURE LIST*
%ADD10C,0.050000*%
%ADD11R,1.000000X1.701800*%
%ADD12R,0.600000X0.500000*%
%ADD13R,0.500000X0.600000*%
%ADD14C,2.000000*%
%ADD15R,1.300000X1.300000*%
%ADD16C,1.300000*%
%ADD17R,0.400000X0.600000*%
%ADD18R,0.900000X0.600000*%
%ADD19R,0.800000X0.550000*%
%ADD20R,0.500000X0.250000*%
%ADD21R,0.755000X0.250000*%
%ADD22R,0.530000X0.250000*%
%ADD23R,0.640000X0.700000*%
%ADD24R,1.000000X1.250000*%
%ADD25C,0.600000*%
%ADD26C,0.250000*%
%ADD27C,0.300000*%
%ADD28C,0.200000*%
%ADD29C,0.150000*%
G04 APERTURE END LIST*
D10*
D11*
X150700000Y-96400000D03*
X148700000Y-96400000D03*
D12*
X148450000Y-98100000D03*
X149550000Y-98100000D03*
X149550000Y-106800000D03*
X150650000Y-106800000D03*
X147250000Y-95000000D03*
X148350000Y-95000000D03*
X146450000Y-105400000D03*
X147550000Y-105400000D03*
X147050000Y-99000000D03*
X145950000Y-99000000D03*
D13*
X148200000Y-108150000D03*
X148200000Y-109250000D03*
X147500000Y-96550000D03*
X147500000Y-97650000D03*
X147400000Y-108150000D03*
X147400000Y-109250000D03*
D12*
X144750000Y-101700000D03*
X143650000Y-101700000D03*
X144850000Y-103800000D03*
X143750000Y-103800000D03*
D14*
X147500000Y-102500000D03*
D15*
X155100000Y-101219000D03*
D16*
X155100000Y-103759000D03*
D15*
X139900000Y-101219000D03*
D16*
X139900000Y-103759000D03*
D17*
X149450000Y-99100000D03*
X148550000Y-99100000D03*
X152550000Y-97700000D03*
X153450000Y-97700000D03*
X152550000Y-98700000D03*
X153450000Y-98700000D03*
X151550000Y-99100000D03*
X150650000Y-99100000D03*
X150650000Y-98100000D03*
X151550000Y-98100000D03*
X151650000Y-106800000D03*
X152550000Y-106800000D03*
X149150000Y-95000000D03*
X150050000Y-95000000D03*
X148450000Y-105400000D03*
X149350000Y-105400000D03*
X144150000Y-99700000D03*
X145050000Y-99700000D03*
X143850000Y-105800000D03*
X144750000Y-105800000D03*
X144650000Y-100700000D03*
X143750000Y-100700000D03*
X144750000Y-104800000D03*
X143850000Y-104800000D03*
D12*
X147550000Y-100700000D03*
X148650000Y-100700000D03*
X152250000Y-103400000D03*
X151150000Y-103400000D03*
D18*
X152550000Y-102150000D03*
X152550000Y-101200000D03*
X152550000Y-100250000D03*
X150050000Y-100250000D03*
X150050000Y-102150000D03*
D19*
X143700000Y-95650000D03*
X143700000Y-96600000D03*
X143700000Y-97550000D03*
X146300000Y-97550000D03*
X146300000Y-96600000D03*
X146300000Y-95650000D03*
X143700000Y-107250000D03*
X143700000Y-108200000D03*
X143700000Y-109150000D03*
X146300000Y-109150000D03*
X146300000Y-108200000D03*
X146300000Y-107250000D03*
D11*
X151400000Y-108400000D03*
X149400000Y-108400000D03*
D20*
X143025000Y-100000000D03*
D21*
X142860000Y-99500000D03*
D20*
X143025000Y-99000000D03*
X141375000Y-99000000D03*
X141375000Y-100000000D03*
D22*
X141615000Y-99500000D03*
D23*
X142200000Y-99500000D03*
D20*
X143025000Y-105800000D03*
D21*
X142860000Y-105300000D03*
D20*
X143025000Y-104800000D03*
X141375000Y-104800000D03*
X141375000Y-105800000D03*
D22*
X141615000Y-105300000D03*
D23*
X142200000Y-105300000D03*
D24*
X151100000Y-105500000D03*
X153100000Y-105500000D03*
D25*
X153450000Y-99500000D03*
X142700000Y-96600000D03*
X148200000Y-106800000D03*
X145300000Y-104800000D03*
X145200000Y-100700000D03*
X142700000Y-108200000D03*
X142200000Y-106400000D03*
X147800000Y-99000000D03*
D26*
X141615000Y-99500000D02*
X142200000Y-99500000D01*
X142200000Y-99500000D02*
X142860000Y-99500000D01*
D27*
X153450000Y-99500000D02*
X153450000Y-100950000D01*
X153450000Y-98700000D02*
X153450000Y-99500000D01*
X153200000Y-101200000D02*
X152550000Y-101200000D01*
X153450000Y-100950000D02*
X153200000Y-101200000D01*
X148450000Y-98100000D02*
X148450000Y-96650000D01*
X148450000Y-96650000D02*
X148700000Y-96400000D01*
X147800000Y-99000000D02*
X147800000Y-98750000D01*
X147800000Y-98750000D02*
X148450000Y-98100000D01*
X142200000Y-99500000D02*
X142200000Y-97100000D01*
X142700000Y-96600000D02*
X143700000Y-96600000D01*
X142200000Y-97100000D02*
X142700000Y-96600000D01*
X148200000Y-108150000D02*
X149150000Y-108150000D01*
X149150000Y-108150000D02*
X149400000Y-108400000D01*
X148200000Y-108150000D02*
X148200000Y-107550000D01*
X148200000Y-107200000D02*
X148200000Y-106800000D01*
X148200000Y-106800000D02*
X149250000Y-106800000D01*
X148200000Y-107550000D02*
X148200000Y-107200000D01*
D28*
X142785000Y-99500000D02*
X142200000Y-99500000D01*
X142785000Y-105300000D02*
X142200000Y-105300000D01*
X141690000Y-105300000D02*
X142200000Y-105300000D01*
D27*
X144750000Y-104800000D02*
X145300000Y-104800000D01*
X144650000Y-100700000D02*
X145200000Y-100700000D01*
X143700000Y-108200000D02*
X142700000Y-108200000D01*
X142200000Y-105300000D02*
X142200000Y-106400000D01*
X147050000Y-99000000D02*
X147800000Y-99000000D01*
X149150000Y-108318400D02*
X149231600Y-108400000D01*
X144750000Y-104800000D02*
X144750000Y-103900000D01*
X144750000Y-103900000D02*
X144850000Y-103800000D01*
X144650000Y-100700000D02*
X144650000Y-101600000D01*
X144650000Y-101600000D02*
X144750000Y-101700000D01*
X150650000Y-98100000D02*
X150650000Y-96450000D01*
X150650000Y-96450000D02*
X150700000Y-96400000D01*
X150050000Y-95000000D02*
X150050000Y-95750000D01*
X150050000Y-95750000D02*
X150700000Y-96400000D01*
X150650000Y-96350000D02*
X150700000Y-96400000D01*
X150650000Y-98100000D02*
X149550000Y-98100000D01*
X150650000Y-106800000D02*
X150650000Y-106750000D01*
X150650000Y-106750000D02*
X150100000Y-106200000D01*
X149350000Y-105400000D02*
X149600000Y-105400000D01*
X150100000Y-105900000D02*
X149600000Y-105400000D01*
X150100000Y-106200000D02*
X150100000Y-105900000D01*
X151650000Y-106800000D02*
X151650000Y-108150000D01*
X151650000Y-108150000D02*
X151400000Y-108400000D01*
X150650000Y-106800000D02*
X151650000Y-106800000D01*
X146300000Y-95650000D02*
X146600000Y-95650000D01*
X146600000Y-95650000D02*
X147250000Y-95000000D01*
X148350000Y-95000000D02*
X149150000Y-95000000D01*
X146300000Y-107250000D02*
X146300000Y-106450000D01*
X146300000Y-106450000D02*
X146300000Y-105550000D01*
X146300000Y-105550000D02*
X146450000Y-105400000D01*
X147550000Y-105400000D02*
X148450000Y-105400000D01*
X153100000Y-105500000D02*
X153900000Y-105500000D01*
X153100000Y-105500000D02*
X153100000Y-104800000D01*
X150050000Y-103350000D02*
X150700000Y-104000000D01*
X150700000Y-104000000D02*
X152300000Y-104000000D01*
X152300000Y-104000000D02*
X152850000Y-104550000D01*
X150050000Y-103350000D02*
X150050000Y-102150000D01*
X153100000Y-104800000D02*
X152850000Y-104550000D01*
X146900000Y-94300000D02*
X145050000Y-94300000D01*
X145050000Y-94300000D02*
X143700000Y-95650000D01*
X148200000Y-109250000D02*
X147400000Y-109250000D01*
X153450000Y-96850000D02*
X153450000Y-97700000D01*
X151700000Y-95100000D02*
X153450000Y-96850000D01*
X151100000Y-95100000D02*
X151700000Y-95100000D01*
X150300000Y-94300000D02*
X151100000Y-95100000D01*
X146800000Y-94300000D02*
X146900000Y-94300000D01*
X146900000Y-94300000D02*
X150300000Y-94300000D01*
X146300000Y-97550000D02*
X147400000Y-97550000D01*
X147400000Y-97550000D02*
X147500000Y-97650000D01*
D26*
X141375000Y-105800000D02*
X141375000Y-107075000D01*
X141375000Y-107075000D02*
X142000000Y-107700000D01*
X141375000Y-100000000D02*
X141375000Y-100475000D01*
D27*
X145950000Y-101850000D02*
X145400000Y-102400000D01*
X145400000Y-102400000D02*
X143300000Y-102400000D01*
X143300000Y-102400000D02*
X141500000Y-100600000D01*
X145950000Y-101850000D02*
X145950000Y-99000000D01*
D26*
X141375000Y-100475000D02*
X141500000Y-100600000D01*
D27*
X146300000Y-98650000D02*
X145950000Y-99000000D01*
X146300000Y-97550000D02*
X146300000Y-98650000D01*
X153900000Y-105500000D02*
X153900000Y-107700000D01*
X153900000Y-107700000D02*
X151900000Y-109700000D01*
X151900000Y-109700000D02*
X148650000Y-109700000D01*
X148650000Y-109700000D02*
X148200000Y-109250000D01*
X146300000Y-109150000D02*
X147300000Y-109150000D01*
X147300000Y-109150000D02*
X147400000Y-109250000D01*
X142000000Y-108600000D02*
X143200000Y-109800000D01*
X142000000Y-107700000D02*
X142000000Y-108600000D01*
X146300000Y-109600000D02*
X146300000Y-109150000D01*
X146100000Y-109800000D02*
X146300000Y-109600000D01*
X143200000Y-109800000D02*
X146100000Y-109800000D01*
X143700000Y-107250000D02*
X142450000Y-107250000D01*
X142450000Y-107250000D02*
X142000000Y-107700000D01*
X153900000Y-105500000D02*
X153900000Y-105300000D01*
X153900000Y-102419000D02*
X155100000Y-101219000D01*
X153900000Y-105300000D02*
X153900000Y-102419000D01*
X155100000Y-101219000D02*
X155100000Y-99350000D01*
X155100000Y-99350000D02*
X154756000Y-99006000D01*
X154756000Y-99006000D02*
X153450000Y-97700000D01*
X146300000Y-97550000D02*
X145650000Y-97550000D01*
X145650000Y-97550000D02*
X145000000Y-96900000D01*
X145000000Y-96900000D02*
X145000000Y-96300000D01*
X145000000Y-96300000D02*
X144350000Y-95650000D01*
X144350000Y-95650000D02*
X143700000Y-95650000D01*
X152850000Y-105500000D02*
X152850000Y-105450000D01*
X146300000Y-96600000D02*
X147450000Y-96600000D01*
X147450000Y-96600000D02*
X147500000Y-96550000D01*
X146300000Y-108200000D02*
X147350000Y-108200000D01*
X147350000Y-108200000D02*
X147400000Y-108150000D01*
X143750000Y-100700000D02*
X143750000Y-100000000D01*
X143750000Y-100000000D02*
X143850000Y-100000000D01*
X142875000Y-100000000D02*
X143850000Y-100000000D01*
X143850000Y-100000000D02*
X144150000Y-99700000D01*
X143750000Y-100700000D02*
X143750000Y-101600000D01*
X143750000Y-101600000D02*
X143650000Y-101700000D01*
X143850000Y-105800000D02*
X142875000Y-105800000D01*
X143850000Y-104800000D02*
X143850000Y-105800000D01*
X143850000Y-104800000D02*
X143850000Y-103900000D01*
X143850000Y-103900000D02*
X143750000Y-103800000D01*
X152550000Y-100250000D02*
X152550000Y-98700000D01*
X152550000Y-100250000D02*
X152750000Y-100250000D01*
X152550000Y-97700000D02*
X152550000Y-98700000D01*
X152650000Y-100150000D02*
X152550000Y-100250000D01*
X150050000Y-100250000D02*
X150050000Y-99150000D01*
X150050000Y-99150000D02*
X150100000Y-99100000D01*
X150150000Y-99100000D02*
X150100000Y-99100000D01*
X149450000Y-99100000D02*
X150100000Y-99100000D01*
X150100000Y-99100000D02*
X150650000Y-99100000D01*
D26*
X143700000Y-97550000D02*
X143700000Y-99000000D01*
X142875000Y-99000000D02*
X143700000Y-99000000D01*
X143700000Y-99000000D02*
X144300000Y-99000000D01*
X144300000Y-99000000D02*
X144600000Y-99000000D01*
X144600000Y-99000000D02*
X145050000Y-99450000D01*
X145050000Y-99450000D02*
X145050000Y-99700000D01*
D27*
X145050000Y-99700000D02*
X145050000Y-99600000D01*
X144900000Y-105950000D02*
X144900000Y-107000000D01*
X144350000Y-109150000D02*
X143700000Y-109150000D01*
X144350000Y-109150000D02*
X144900000Y-108600000D01*
X144900000Y-107000000D02*
X144900000Y-108600000D01*
X144900000Y-105950000D02*
X144750000Y-105800000D01*
X142875000Y-103525000D02*
X143200000Y-103200000D01*
D26*
X144750000Y-105750000D02*
X144300000Y-105300000D01*
D29*
X144300000Y-105300000D02*
X144300000Y-103400000D01*
D26*
X144300000Y-103400000D02*
X144300000Y-103350000D01*
D27*
X142875000Y-103525000D02*
X142875000Y-103900000D01*
X144150000Y-103200000D02*
X144300000Y-103350000D01*
X143200000Y-103200000D02*
X144150000Y-103200000D01*
X142875000Y-104800000D02*
X142875000Y-103900000D01*
X142875000Y-103900000D02*
X142875000Y-103825000D01*
X144750000Y-105800000D02*
X144750000Y-105750000D01*
D26*
X139900000Y-101219000D02*
X139900000Y-100900000D01*
X139900000Y-100900000D02*
X140800000Y-100000000D01*
X140800000Y-100000000D02*
X140800000Y-99200000D01*
X140800000Y-99200000D02*
X141000000Y-99000000D01*
X141000000Y-99000000D02*
X141375000Y-99000000D01*
X141525000Y-104800000D02*
X140941000Y-104800000D01*
X140941000Y-104800000D02*
X139900000Y-103759000D01*
D27*
X151100000Y-105500000D02*
X150500000Y-105500000D01*
X150500000Y-105500000D02*
X147500000Y-102500000D01*
X147700000Y-102500000D02*
X147500000Y-102500000D01*
X147500000Y-102500000D02*
X147500000Y-100750000D01*
X147500000Y-100750000D02*
X147550000Y-100700000D01*
X148550000Y-99100000D02*
X148550000Y-100600000D01*
X148550000Y-100600000D02*
X148650000Y-100700000D01*
X148550000Y-100600000D02*
X148650000Y-100700000D01*
D28*
X151700000Y-99250000D02*
X151700000Y-101700000D01*
X151700000Y-101700000D02*
X152150000Y-102150000D01*
X151700000Y-99250000D02*
X151550000Y-99100000D01*
X152550000Y-102150000D02*
X152150000Y-102150000D01*
D27*
X152550000Y-102150000D02*
X152550000Y-103100000D01*
X152550000Y-103100000D02*
X152250000Y-103400000D01*
X152450000Y-102250000D02*
X152550000Y-102150000D01*
X152550000Y-106800000D02*
X152550000Y-106650000D01*
X152550000Y-106650000D02*
X152100000Y-106200000D01*
X152100000Y-106200000D02*
X152100000Y-106000000D01*
D28*
X151100000Y-99600000D02*
X151100000Y-99700000D01*
X151100000Y-99700000D02*
X151100000Y-100900000D01*
D26*
X150800000Y-101200000D02*
X151100000Y-100900000D01*
X151100000Y-98550000D02*
X151550000Y-98100000D01*
D29*
X151100000Y-98600000D02*
X151100000Y-99500000D01*
D26*
X151100000Y-98600000D02*
X151100000Y-98550000D01*
D28*
X151100000Y-99500000D02*
X151100000Y-99600000D01*
D27*
X149100000Y-103100000D02*
X149100000Y-102800000D01*
X149100000Y-102800000D02*
X149100000Y-101600000D01*
X149100000Y-101600000D02*
X149500000Y-101200000D01*
X149500000Y-101200000D02*
X150800000Y-101200000D01*
X149100000Y-103100000D02*
X149200000Y-103200000D01*
X150500000Y-104500000D02*
X149100000Y-103100000D01*
X151700000Y-104500000D02*
X150500000Y-104500000D01*
X152100000Y-104900000D02*
X151700000Y-104500000D01*
X152100000Y-106000000D02*
X152100000Y-104900000D01*
D26*
X151150000Y-103400000D02*
X151150000Y-101550000D01*
X151150000Y-101550000D02*
X150800000Y-101200000D01*
M02*
