%TF.GenerationSoftware,KiCad,Pcbnew,4.0.6*%
%TF.CreationDate,2018-01-25T19:50:15+09:00*%
%TF.ProjectId,1wayI2Con2DCDemod,317761794932436F6E32444344656D6F,rev?*%
%TF.FileFunction,Soldermask,Top*%
%FSLAX46Y46*%
G04 Gerber Fmt 4.6, Leading zero omitted, Abs format (unit mm)*
G04 Created by KiCad (PCBNEW 4.0.6) date 01/25/18 19:50:15*
%MOMM*%
%LPD*%
G01*
G04 APERTURE LIST*
%ADD10C,0.050000*%
%ADD11C,0.300000*%
%ADD12C,0.200000*%
%ADD13C,0.250000*%
%ADD14R,1.200000X1.901800*%
%ADD15R,0.800000X0.700000*%
%ADD16R,0.700000X0.800000*%
%ADD17C,2.200000*%
%ADD18R,1.500000X1.500000*%
%ADD19C,1.500000*%
%ADD20R,0.600000X0.800000*%
%ADD21R,1.100000X0.800000*%
%ADD22R,1.000000X0.750000*%
%ADD23R,0.700000X0.450000*%
%ADD24R,0.955000X0.450000*%
%ADD25R,0.730000X0.450000*%
%ADD26R,0.840000X0.900000*%
%ADD27R,1.200000X1.450000*%
G04 APERTURE END LIST*
D10*
D11*
X143750000Y-106600000D02*
G75*
G03X143750000Y-106600000I-150000J0D01*
G01*
X143650000Y-95000000D02*
G75*
G03X143650000Y-95000000I-150000J0D01*
G01*
D12*
X140271429Y-99628571D02*
X140214286Y-99685714D01*
X140042857Y-99742857D01*
X139928571Y-99742857D01*
X139757143Y-99685714D01*
X139642857Y-99571429D01*
X139585714Y-99457143D01*
X139528571Y-99228571D01*
X139528571Y-99057143D01*
X139585714Y-98828571D01*
X139642857Y-98714286D01*
X139757143Y-98600000D01*
X139928571Y-98542857D01*
X140042857Y-98542857D01*
X140214286Y-98600000D01*
X140271429Y-98657143D01*
X139685714Y-106542857D02*
X139685714Y-105342857D01*
X139971429Y-105342857D01*
X140142857Y-105400000D01*
X140257143Y-105514286D01*
X140314286Y-105628571D01*
X140371429Y-105857143D01*
X140371429Y-106028571D01*
X140314286Y-106257143D01*
X140257143Y-106371429D01*
X140142857Y-106485714D01*
X139971429Y-106542857D01*
X139685714Y-106542857D01*
D13*
X155214286Y-105300000D02*
X155100000Y-105242857D01*
X154928571Y-105242857D01*
X154757143Y-105300000D01*
X154642857Y-105414286D01*
X154585714Y-105528571D01*
X154528571Y-105757143D01*
X154528571Y-105928571D01*
X154585714Y-106157143D01*
X154642857Y-106271429D01*
X154757143Y-106385714D01*
X154928571Y-106442857D01*
X155042857Y-106442857D01*
X155214286Y-106385714D01*
X155271429Y-106328571D01*
X155271429Y-105928571D01*
X155042857Y-105928571D01*
D14*
X150700000Y-96400000D03*
X148700000Y-96400000D03*
D15*
X148450000Y-98100000D03*
X149550000Y-98100000D03*
X149550000Y-106800000D03*
X150650000Y-106800000D03*
X147250000Y-95000000D03*
X148350000Y-95000000D03*
X146450000Y-105400000D03*
X147550000Y-105400000D03*
X147050000Y-99000000D03*
X145950000Y-99000000D03*
D16*
X148200000Y-108150000D03*
X148200000Y-109250000D03*
X147500000Y-96550000D03*
X147500000Y-97650000D03*
X147400000Y-108150000D03*
X147400000Y-109250000D03*
D15*
X144750000Y-101700000D03*
X143650000Y-101700000D03*
X144850000Y-103800000D03*
X143750000Y-103800000D03*
D17*
X147500000Y-102500000D03*
D18*
X155100000Y-101219000D03*
D19*
X155100000Y-103759000D03*
D18*
X139900000Y-101219000D03*
D19*
X139900000Y-103759000D03*
D20*
X149450000Y-99100000D03*
X148550000Y-99100000D03*
X152550000Y-97700000D03*
X153450000Y-97700000D03*
X152550000Y-98700000D03*
X153450000Y-98700000D03*
X151550000Y-99100000D03*
X150650000Y-99100000D03*
X150650000Y-98100000D03*
X151550000Y-98100000D03*
X151650000Y-106800000D03*
X152550000Y-106800000D03*
X149150000Y-95000000D03*
X150050000Y-95000000D03*
X148450000Y-105400000D03*
X149350000Y-105400000D03*
X144150000Y-99700000D03*
X145050000Y-99700000D03*
X143850000Y-105800000D03*
X144750000Y-105800000D03*
X144650000Y-100700000D03*
X143750000Y-100700000D03*
X144750000Y-104800000D03*
X143850000Y-104800000D03*
D15*
X147550000Y-100700000D03*
X148650000Y-100700000D03*
X152250000Y-103400000D03*
X151150000Y-103400000D03*
D21*
X152550000Y-102150000D03*
X152550000Y-101200000D03*
X152550000Y-100250000D03*
X150050000Y-100250000D03*
X150050000Y-102150000D03*
D22*
X143700000Y-95650000D03*
X143700000Y-96600000D03*
X143700000Y-97550000D03*
X146300000Y-97550000D03*
X146300000Y-96600000D03*
X146300000Y-95650000D03*
X143700000Y-107250000D03*
X143700000Y-108200000D03*
X143700000Y-109150000D03*
X146300000Y-109150000D03*
X146300000Y-108200000D03*
X146300000Y-107250000D03*
D14*
X151400000Y-108400000D03*
X149400000Y-108400000D03*
D23*
X143025000Y-100000000D03*
D24*
X142860000Y-99500000D03*
D23*
X143025000Y-99000000D03*
X141375000Y-99000000D03*
X141375000Y-100000000D03*
D25*
X141615000Y-99500000D03*
D26*
X142200000Y-99500000D03*
D23*
X143025000Y-105800000D03*
D24*
X142860000Y-105300000D03*
D23*
X143025000Y-104800000D03*
X141375000Y-104800000D03*
X141375000Y-105800000D03*
D25*
X141615000Y-105300000D03*
D26*
X142200000Y-105300000D03*
D27*
X151100000Y-105500000D03*
X153100000Y-105500000D03*
M02*
